<?xml version="1.0" encoding="UTF-8" standalone="no"?>
<!DOCTYPE svg PUBLIC "-//W3C//DTD SVG 1.1//EN" "http://www.w3.org/Graphics/SVG/1.1/DTD/svg11.dtd">
<svg width="100%" height="100%" viewBox="0 0 809 909" version="1.1" xmlns="http://www.w3.org/2000/svg" xmlns:xlink="http://www.w3.org/1999/xlink" xml:space="preserve" xmlns:serif="http://www.serif.com/" style="fill-rule:evenodd;clip-rule:evenodd;stroke-linejoin:round;stroke-miterlimit:2;">
    <g transform="matrix(1,0,0,1,-10857.1,-143.81)">
        <g transform="matrix(1,0,0,1,-0.648294,0)">
            <g transform="matrix(1,0,0,1,7881.09,-172.758)">
                <path d="M3580.87,713.679C3580.87,725.178 3571.53,734.513 3560.03,734.513C3548.53,734.513 3539.2,725.178 3539.2,713.679L3539.2,699.674C3539.2,687.118 3532.49,675.519 3521.61,669.255L3410.66,605.382C3392.36,594.843 3369.82,594.884 3351.55,605.489L3240.51,669.957C3229.58,676.298 3222.86,687.972 3222.86,700.601L3222.86,713.679C3222.86,725.178 3213.53,734.513 3202.03,734.513C3190.53,734.513 3181.2,725.178 3181.2,713.679L3181.2,690.237C3181.2,669.174 3192.41,649.702 3210.62,639.127L3333.74,567.646C3362.97,550.677 3399.04,550.611 3428.33,567.474L3545.36,634.847C3567.33,647.494 3580.87,670.913 3580.87,696.262L3580.87,713.679ZM3120.58,713.679C3120.58,725.178 3111.24,734.513 3099.74,734.513C3088.24,734.513 3078.91,725.178 3078.91,713.679L3078.91,609.036C3078.91,601.61 3082.86,594.745 3089.28,591.017L3305.85,465.315C3315.8,459.543 3328.56,462.93 3334.33,472.875C3340.1,482.819 3336.72,495.579 3326.77,501.351L3120.58,621.032L3120.58,713.679ZM3641.49,828.277C3641.49,816.778 3650.82,807.443 3662.32,807.443C3673.82,807.443 3683.15,816.778 3683.15,828.277L3683.15,932.92C3683.15,940.346 3679.2,947.211 3672.78,950.939L3456.21,1076.64C3446.26,1082.41 3433.5,1079.03 3427.73,1069.08C3421.96,1059.14 3425.35,1046.38 3435.29,1040.61L3641.49,920.924L3641.49,828.277ZM3683.15,713.679C3683.15,725.178 3673.82,734.513 3662.32,734.513C3650.82,734.513 3641.49,725.178 3641.49,713.679L3641.49,621.032L3435.29,501.351C3425.35,495.579 3421.96,482.819 3427.73,472.875C3433.5,462.93 3446.26,459.543 3456.21,465.315L3672.78,591.017C3679.2,594.745 3683.15,601.61 3683.15,609.036L3683.15,713.679ZM3078.91,828.277C3078.91,816.778 3088.24,807.443 3099.74,807.443C3111.24,807.443 3120.58,816.778 3120.58,828.277L3120.58,920.924L3326.77,1040.61C3336.72,1046.38 3340.1,1059.14 3334.33,1069.08C3328.56,1079.03 3315.8,1082.41 3305.85,1076.64L3089.28,950.939C3082.86,947.211 3078.91,940.346 3078.91,932.92L3078.91,828.277ZM3181.2,830.109C3181.2,818.61 3190.53,809.275 3202.03,809.275C3213.53,809.275 3222.86,818.61 3222.86,830.109L3222.86,844.114C3222.86,856.67 3229.57,868.269 3240.45,874.533L3351.4,938.406C3369.7,948.945 3392.24,948.904 3410.51,938.299L3521.56,873.831C3532.48,867.49 3539.2,855.816 3539.2,843.187L3539.2,830.109C3539.2,818.61 3548.53,809.275 3560.03,809.275C3571.53,809.275 3580.87,818.61 3580.87,830.109L3580.87,853.551C3580.87,874.614 3569.65,894.086 3551.44,904.661L3428.32,976.142C3399.09,993.111 3363.02,993.177 3333.73,976.314L3216.7,908.941C3194.74,896.294 3181.2,872.875 3181.2,847.526L3181.2,830.109ZM3269.36,750.143C3265.63,750.143 3262.12,748.383 3259.89,745.395C3257.66,742.407 3256.98,738.542 3258.04,734.969C3273.62,681.764 3322.82,642.856 3381.03,642.856C3439.24,642.856 3488.44,681.764 3504.01,734.972C3505.07,738.542 3504.39,742.404 3502.16,745.389C3499.93,748.374 3496.43,750.133 3492.7,750.133C3488.39,750.143 3483.69,750.143 3479.41,750.143C3471.3,750.143 3463.98,745.264 3460.87,737.777C3447.84,706.519 3416.99,684.523 3381.03,684.523C3345.08,684.523 3314.22,706.519 3301.19,737.777C3298.08,745.264 3290.76,750.142 3282.65,750.142C3278.37,750.143 3273.67,750.143 3269.36,750.143ZM3492.7,791.809C3496.43,791.809 3499.94,793.569 3502.17,796.557C3504.4,799.544 3505.08,803.409 3504.02,806.983C3488.44,860.187 3439.24,899.095 3381.03,899.095C3322.82,899.095 3273.62,860.187 3258.05,806.98C3256.99,803.41 3257.68,799.548 3259.9,796.563C3262.13,793.577 3265.64,791.819 3269.36,791.819C3273.67,791.809 3278.37,791.809 3282.65,791.809C3290.76,791.809 3298.08,796.687 3301.19,804.175C3314.22,835.433 3345.08,857.429 3381.03,857.429C3416.99,857.429 3447.84,835.433 3460.87,804.175C3463.98,796.688 3471.3,791.81 3479.41,791.81C3483.69,791.809 3488.39,791.809 3492.7,791.809ZM3381.03,736.103C3400.28,736.103 3415.9,751.729 3415.9,770.976C3415.9,790.223 3400.28,805.849 3381.03,805.849C3361.78,805.849 3346.16,790.223 3346.16,770.976C3346.16,751.729 3361.78,736.103 3381.03,736.103ZM3202.03,750.143C3213.53,750.143 3222.86,759.478 3222.86,770.976C3222.86,782.474 3213.53,791.809 3202.03,791.809L2997.46,791.809C2985.96,791.809 2976.62,782.474 2976.62,770.976C2976.62,759.478 2985.96,750.143 2997.46,750.143L3202.03,750.143ZM3764.6,750.143C3776.1,750.143 3785.44,759.478 3785.44,770.976C3785.44,782.474 3776.1,791.809 3764.6,791.809L3560.03,791.809C3548.53,791.809 3539.2,782.474 3539.2,770.976C3539.2,759.478 3548.53,750.143 3560.03,750.143L3764.6,750.143ZM3401.86,505.228C3401.86,516.726 3392.53,526.061 3381.03,526.061C3369.53,526.061 3360.2,516.726 3360.2,505.228L3360.2,337.402C3360.2,325.903 3369.53,316.568 3381.03,316.568C3392.53,316.568 3401.86,325.903 3401.86,337.402L3401.86,505.228ZM3401.86,1204.55C3401.86,1216.05 3392.53,1225.38 3381.03,1225.38C3369.53,1225.38 3360.2,1216.05 3360.2,1204.55L3360.2,1036.72C3360.2,1025.23 3369.53,1015.89 3381.03,1015.89C3392.53,1015.89 3401.86,1025.23 3401.86,1036.72L3401.86,1204.55Z"/>
            </g>
        </g>
    </g>
</svg>
